<svg width="200" height="201" viewBox="0 0 200 201" fill="none" xmlns="http://www.w3.org/2000/svg">
<path fill-rule="evenodd" clip-rule="evenodd" d="M189.026 111.767C183.305 156.017 145.482 190.202 99.6736 190.202C53.2223 190.202 14.9811 155.05 10.0991 109.897L0.0357931 109.792C4.90981 160.529 47.6586 200.202 99.6736 200.202C150.975 200.202 193.263 161.609 199.09 111.872L189.026 111.767ZM10.0372 90.8952C14.6483 45.4581 53.0201 10 99.6736 10C146.967 10 185.75 46.4377 189.481 92.7709L199.518 92.8758C195.815 40.9642 152.528 0 99.6736 0C47.5288 0 4.69644 39.8712 0 90.7902L10.0372 90.8952Z" fill="white"/>
</svg>
