<svg xmlns="http://www.w3.org/2000/svg" width="24" height="24" fill="none" data-name="PanelStartCloseMedium" viewBox="0 0 24 24" class="Icon Icon--directional" aria-hidden="true" focusable="false"><path fill="currentColor" d="M5 3.75C4.30964 3.75 3.75 4.30964 3.75 5V19C3.75 19.6904 4.30964 20.25 5 20.25H8.25V3.75H5ZM5 2.25C3.48122 2.25 2.25 3.48122 2.25 5V19C2.25 20.5188 3.48122 21.75 5 21.75H19C20.5188 21.75 21.75 20.5188 21.75 19V5C21.75 3.48122 20.5188 2.25 19 2.25H5ZM9.75 3.75V20.25H19C19.6904 20.25 20.25 19.6904 20.25 19V5C20.25 4.30964 19.6904 3.75 19 3.75H9.75ZM16.5303 8.46967C16.8232 8.76256 16.8232 9.23744 16.5303 9.53033L14.0607 12L16.5303 14.4697C16.8232 14.7626 16.8232 15.2374 16.5303 15.5303C16.2374 15.8232 15.7626 15.8232 15.4697 15.5303L12.4697 12.5303C12.1768 12.2374 12.1768 11.7626 12.4697 11.4697L15.4697 8.46967C15.7626 8.17678 16.2374 8.17678 16.5303 8.46967Z" fill-rule="evenodd" clip-rule="evenodd" vector-effect="non-scaling-stroke"></path></svg>