<svg width="300" height="300" viewBox="0 0 300 300" fill="none" xmlns="http://www.w3.org/2000/svg">
<circle cx="149.917" cy="150" r="105" stroke="#657982" stroke-width="20"/>
<path fill-rule="evenodd" clip-rule="evenodd" d="M279.677 157.967C275.56 226.054 219.038 280 149.917 280C79.8789 280 22.7771 224.614 20.0208 155.253L-0.000183105 155.043C2.65956 235.551 68.7617 300 149.917 300C230.016 300 295.452 237.217 299.698 158.176L279.677 157.967ZM20.6343 136.258C27.4988 70.9209 82.7611 20 149.917 20C217.996 20 273.853 72.332 279.455 138.963L299.532 139.173C293.984 61.3843 229.119 0 149.917 0C71.7783 0 7.59445 59.7466 0.556888 136.048L20.6343 136.258Z" fill="white"/>
<path fill-rule="evenodd" clip-rule="evenodd" d="M209.246 159C204.904 187.868 179.995 210 149.917 210C116.78 210 89.9168 183.137 89.9168 150C89.9168 116.863 116.78 90 149.917 90C179.297 90 203.744 111.116 208.911 139H229.167C223.807 100.022 190.368 70 149.917 70C105.734 70 69.9168 105.817 69.9168 150C69.9168 194.183 105.734 230 149.917 230C191.057 230 224.944 198.946 229.416 159H209.246Z" fill="white"/>
</svg>
