<svg xmlns="http://www.w3.org/2000/svg" width="24" height="24" fill="none" data-name="PanelStartOpenMedium" viewBox="0 0 24 24" class="Icon Icon--directional" aria-hidden="true" focusable="false"><path fill="currentColor" d="M5 3.75C4.30964 3.75 3.75 4.30964 3.75 5V19C3.75 19.6904 4.30964 20.25 5 20.25H8.25V3.75H5ZM5 2.25C3.48122 2.25 2.25 3.48122 2.25 5V19C2.25 20.5188 3.48122 21.75 5 21.75H19C20.5188 21.75 21.75 20.5188 21.75 19V5C21.75 3.48122 20.5188 2.25 19 2.25H5ZM9.75 3.75V20.25H19C19.6904 20.25 20.25 19.6904 20.25 19V5C20.25 4.30964 19.6904 3.75 19 3.75H9.75ZM13.4697 8.46967C13.7626 8.17678 14.2374 8.17678 14.5303 8.46967L17.5303 11.4697C17.8232 11.7626 17.8232 12.2374 17.5303 12.5303L14.5303 15.5303C14.2374 15.8232 13.7626 15.8232 13.4697 15.5303C13.1768 15.2374 13.1768 14.7626 13.4697 14.4697L15.9393 12L13.4697 9.53033C13.1768 9.23744 13.1768 8.76256 13.4697 8.46967Z" fill-rule="evenodd" clip-rule="evenodd" vector-effect="non-scaling-stroke"></path></svg>